<svg width="15" height="15" viewBox="0 0 15 15" fill="none" xmlns="http://www.w3.org/2000/svg">
<path d="M14.9989 7.50026C14.9989 11.2882 12.1912 14.4198 8.54365 14.928C8.2026 14.9753 7.85366 15 7.49947 15C7.09063 15 6.68915 14.9674 6.29817 14.9044C2.72737 14.3294 0 11.233 0 7.50026C0 3.35809 3.35797 0 7.5 0C11.642 0 15 3.35809 15 7.50026H14.9989Z" fill="#383D38" fill-opacity="0.35"/>
<path d="M8.54377 6.02246V7.65631H10.5649L10.2448 9.8572H8.54377V14.928C8.20272 14.9753 7.85378 15 7.49959 15C7.09075 15 6.68927 14.9674 6.29829 14.9043V9.8572H4.43433V7.65631H6.29829V5.65722C6.29829 4.41699 7.30358 3.41113 8.5443 3.41113V3.41218C8.54798 3.41218 8.55113 3.41113 8.55481 3.41113H10.5654V5.31458H9.25163C8.86118 5.31458 8.5443 5.63147 8.5443 6.02193L8.54377 6.02246Z" fill="white"/>
</svg>
