<svg width="15" height="15" viewBox="0 0 15 15" fill="none" xmlns="http://www.w3.org/2000/svg">
<path d="M7.51708 0H7.48292C3.35022 0 0 3.35022 0 7.48292V7.51708C0 11.6498 3.35022 15 7.48292 15H7.51708C11.6498 15 15 11.6498 15 7.51708V7.48292C15 3.35022 11.6498 0 7.51708 0Z" fill="#383D38" fill-opacity="0.35"/>
<path d="M9.82086 3.05176H5.17944C3.89717 3.05176 2.854 4.09492 2.854 5.3772V9.62342C2.854 10.9057 3.89717 11.9489 5.17944 11.9489H9.82086C11.1031 11.9489 12.1463 10.9057 12.1463 9.62342V5.3772C12.1463 4.09492 11.1031 3.05176 9.82086 3.05176ZM3.67435 5.3772C3.67435 4.5474 4.34964 3.8721 5.17944 3.8721H9.82086C10.6507 3.8721 11.326 4.5474 11.326 5.3772V9.62342C11.326 10.4532 10.6507 11.1285 9.82086 11.1285H5.17944C4.34964 11.1285 3.67435 10.4532 3.67435 9.62342V5.3772Z" fill="white"/>
<path d="M7.50033 9.66278C8.69275 9.66278 9.66339 8.69266 9.66339 7.49972C9.66339 6.30678 8.69327 5.33667 7.50033 5.33667C6.3074 5.33667 5.33728 6.30678 5.33728 7.49972C5.33728 8.69266 6.3074 9.66278 7.50033 9.66278ZM7.50033 6.15754C8.2408 6.15754 8.84304 6.75979 8.84304 7.50025C8.84304 8.24071 8.2408 8.84296 7.50033 8.84296C6.75987 8.84296 6.15762 8.24071 6.15762 7.50025C6.15762 6.75979 6.75987 6.15754 7.50033 6.15754Z" fill="white"/>
<path d="M9.86356 5.68618C10.1847 5.68618 10.4464 5.425 10.4464 5.10338C10.4464 4.78176 10.1852 4.52057 9.86356 4.52057C9.54194 4.52057 9.28076 4.78176 9.28076 5.10338C9.28076 5.425 9.54194 5.68618 9.86356 5.68618Z" fill="white"/>
</svg>
