<svg width="15" height="15" viewBox="0 0 15 15" fill="none" xmlns="http://www.w3.org/2000/svg">
<path d="M7.51708 0H7.48292C3.35022 0 0 3.35022 0 7.48292V7.51708C0 11.6498 3.35022 15 7.48292 15H7.51708C11.6498 15 15 11.6498 15 7.51708V7.48292C15 3.35022 11.6498 0 7.51708 0Z" fill="#383D38" fill-opacity="0.35"/>
<path d="M3.57736 4.98561C3.37976 4.8022 3.28149 4.57518 3.28149 4.30506C3.28149 4.03494 3.38029 3.79793 3.57736 3.614C3.77495 3.43059 4.02931 3.33862 4.34094 3.33862C4.65258 3.33862 4.89695 3.43059 5.09402 3.614C5.29162 3.7974 5.38988 4.02811 5.38988 4.30506C5.38988 4.58201 5.29109 4.8022 5.09402 4.98561C4.89642 5.16902 4.64575 5.26098 4.34094 5.26098C4.03614 5.26098 3.77495 5.16902 3.57736 4.98561ZM5.22382 6.03771V11.6608H3.44703V6.03771H5.22382Z" fill="#FEFFFC"/>
<path d="M11.1383 6.59315C11.5256 7.01357 11.719 7.5906 11.719 8.32528V11.5614H10.0316V8.55335C10.0316 8.18286 9.93539 7.89487 9.74357 7.68992C9.55176 7.48496 9.2932 7.38196 8.96948 7.38196C8.64576 7.38196 8.38719 7.48444 8.19537 7.68992C8.00356 7.89487 7.90739 8.18286 7.90739 8.55335V11.5614H6.20996V6.02191H7.90739V6.75659C8.07923 6.51169 8.311 6.31831 8.60214 6.17589C8.89328 6.03347 9.22068 5.96252 9.58487 5.96252C10.2334 5.96252 10.7515 6.17273 11.1383 6.59263V6.59315Z" fill="#FEFFFC"/>
</svg>
